# xmcd CD database file
#
# Track frame offsets:
#	150
#	19296
#	38094
#	60591
#	80956
#	98065
#	112767
#	126952
#	150508
#	170047
#	189427
#	209391
#	231067
#
# Disc length: 3378 seconds
#
# Revision: 0
# Processed by: cddbd v1.5.1PL2 Copyright (c) Steve Scherf et al.
# Submitted via: CDex 1.70beta2
#
DISCID=a70d300d
DTITLE=Various Artist - Salsa International  Vol. 1
DYEAR=1900
DGENRE=Salsa
TTITLE0=Orquesta Gali - Suena el tambor
TTITLE1=Jorge Cordero - Se que te gusta
TTITLE2=Havana Mambo - Para la gente que baila
TTITLE3=La Contrabanda - La acompañ
TTITLE4=Conjunto Massalia - Porto latino
TTITLE5=Luisito Varon y su Latin Power - No lagrimas
TTITLE6=Henry Miguel - Hay que delicia
TTITLE7=Phil Robinson - Soy rumbero
TTITLE8=La Contrabanda - Chanson pour l'auvergnat
TTITLE9=Phil Robinson - Baranquilla
TTITLE10=Rigo Rodríguez y su Obra Maestra - La gente quiere mambo
TTITLE11=Verny Varela - El chismoso
TTITLE12=Arcadio - Expectativas (Bachata)
EXTD=
EXTT0=
EXTT1=
EXTT2=
EXTT3=
EXTT4=
EXTT5=
EXTT6=
EXTT7=
EXTT8=
EXTT9=
EXTT10=
EXTT11=
EXTT12=
PLAYORDER=
